<?xml version="1.0" encoding="UTF-8"?><svg id="Layer_1" xmlns="http://www.w3.org/2000/svg" width="364.27" height="364.27" viewBox="0 0 364.27 364.27"><defs><style>.cls-1{fill:#0267c1;}.cls-2{fill:#efa00b;}</style></defs><rect class="cls-1" width="364.27" height="364.27"/><path class="cls-2" d="m151,183.74c.25.21,1.2.99,1.09,1.87-.03.26-.17.64-.94,1.25-1.13.89-2.07,1.04-2.96,1.4-.59.24-1.43.99-3.12,2.49-1.09.97-2.33,2.08-3.9,3.74-1.53,1.61-2.29,2.42-2.81,3.27-1.07,1.76-.87,2.41-2.03,4.05-.74,1.05-1.14,1.24-2.34,2.49-1.55,1.62-2.49,3-3.43,4.37-.38.56-1.65,2.44-3.59,6.55-.95,2.01-2.45,5.39-4.05,10.14-1.47,4.33-1.18,4.36-2.65,8.58-1.8,5.16-2.15,4.9-3.12,8.26-1.22,4.23-.7,4.78-2.03,9.36-1.11,3.81-1.54,3.69-2.34,6.7-.95,3.61-1.01,6.37-1.09,10.45-.1,4.74.27,8.3.62,11.69.5,4.78.75,7.18,1.56,10.14,1.2,4.42,2.81,7.43,4.83,11.23,2.94,5.51,4.42,8.29,7.48,11.38.88.89,4.45,4.39,10.29,7.02,7.62,3.42,14.32,3.19,15.75,3.12,4-.2,10.74-.53,16.37-5.46,5.51-4.82,6.83-11.31,7.33-13.72.47-2.31.11-8.04-.62-19.49-.22-3.44-.32-4.53-.62-6.08-1.01-5.09-2.84-7.96-5.3-12.63-.39-.74-4.53-8.64-7.95-17.78-1.35-3.6-2.49-6.68-3.43-11.07-1.36-6.34-1.41-11.23-1.4-12.63,0-3.75.39-6.61.78-9.51.29-2.13.55-3.53.94-4.99.71-2.69,1.54-4.6,1.72-4.99,1-2.25,1.23-2,3.27-5.61,1.9-3.36,2.58-5.13,4.68-6.24,1.09-.58,1.46-.38,1.56-.31.86.59-.24,3.44-.94,5.61,0,0-1.27,3.95-2.18,11.85-.67,5.81.09,10.42.47,12.63.84,4.89,2.24,8.27,4.21,12.94,1,2.38,1.99,4.47,7.33,14.35,4.27,7.9,6.4,11.84,7.48,13.57,1.99,3.16,5.52,8.71,11.23,14.97,5.8,6.36,11.09,10.42,15.44,13.72,4.14,3.15,7.57,5.38,11.54,7.95,5.97,3.88,8.96,5.82,12.32,7.48,8.81,4.37,16.56,5.87,19.8,6.39,3.35.55,9.22,1.46,16.84.62,5.66-.62,9.55-1.9,15.59-3.9,7.15-2.36,10.79-3.6,13.57-6.24,4.56-4.33,5.92-9.71,6.39-11.69.44-1.85,1.37-5.9.16-10.91-.18-.74-1.06-4.21-3.74-7.95-1.06-1.47-5.36-7.47-12.32-9.04-1.99-.45-2.94-.25-6.08-1.09-3.13-.84-5.02-1.79-6.39-2.34-3.58-1.44-6.45-1.28-12.79-1.09-12.31.36-18.46.54-23.23,0-4.58-.51-8.13-.91-12.63-2.65-6.87-2.66-11.19-6.61-17.93-12.79-5.48-5.02-9.15-9.35-10.45-10.91-5.49-6.62-9.03-12.52-11.23-16.22-6.18-10.39-5.03-11.38-8.42-14.35-.6-.52-3.8-3.25-5.77-7.8-.47-1.07-1.19-2.78-.62-3.27.67-.58,2.81.83,7.8,4.52,4.84,3.59,8.09,6.16,9.82,7.48,3.88,2.96,6.82,4.72,11.69,7.64,7.33,4.39,12.91,6.98,21.05,10.76,9.28,4.31,16.49,7.2,22.3,9.51,7.06,2.82,10.59,4.22,12.32,4.68,3.27.86,8.46,1.9,29.78.47,16.08-1.08,18.88-2.06,21.52-3.43,7.65-3.98,11.83-10.22,13.1-12.16.75-1.14,4-6.26,5.46-13.72.32-1.66.32-6.04.31-14.81,0-2.78-.03-4.74-1.09-7.02-1.3-2.8-3.37-4.41-5.15-5.77-1.05-.8-4.18-3.05-9.04-4.37-1.42-.38-7.78-1.98-15.59.16-3.66,1-5.99,2.37-10.45,4.99-6.57,3.86-6.73,5.19-12.47,8.58-5.99,3.53-11.16,5.25-13.72,6.08-6.01,1.96-10.74,2.61-14.5,3.12-13.66,1.83-14.59-.74-30.41.47-2.47.19-6.42.55-11.54-.47-2.24-.45-4.37-1.09-8.89-2.96-7.66-3.17-16.14-6.68-15.75-8.11.3-1.09,5.48-.07,20.11.94,8.93.61,13.49.92,18.24.62,7.72-.48,13.28-2.03,19.8-3.9,5.01-1.43,15.81-4.81,28.69-11.54,10.66-5.57,17.29-10.57,27.44-18.24,5.04-3.81,7.94-6.28,10.76-10.14,2.97-4.05,4.47-7.95,7.48-15.75,1.88-4.87,3.07-8.7,5.46-16.37,2.14-6.88,3.22-10.37,3.59-12.94.59-4.1,1.35-9.81-.78-16.53-.64-2.04-1.89-5.83-5.15-9.67-4.81-5.66-10.73-7.54-13.1-8.26-2.67-.81-5.88-1.79-9.98-1.09-4.49.76-7.4,3.07-9.82,4.99-5.67,4.49-8.3,9.9-9.67,12.79-.83,1.76-1.34,3.2-2.34,6.08-2.09,5.99-2.38,8.39-3.74,13.1-2.14,7.39-3.76,12.98-7.95,18.71-1.97,2.69-3.09,3.47-5.3,7.02-2.9,4.64-2.4,5.57-4.83,9.36-1.21,1.89-3.68,4.46-8.58,9.51-3.77,3.89-5.68,5.86-7.17,7.02-3.33,2.58-4.63,2.78-8.58,5.77-3.14,2.38-3.78,3.36-6.08,5.3-5.46,4.59-6.84,3.24-14.19,7.95,0,0-11.03,7.08-15.13,7.64-.3.04-1.18.16-1.56-.31-.43-.54.02-1.57.16-1.87,1.1-2.48,5.15-3.19,8.42-4.68,2.2-1.01,2.68-1.74,7.48-5.93,7.44-6.48,7.39-5.66,14.97-12.16,7.62-6.55,5.9-5.85,12.16-11.07,7.22-6.02,9.55-6.97,13.25-11.69,1.87-2.39,2.19-3.31,5.46-7.48,3.93-5.03,4.68-5.24,6.55-7.95,2.25-3.27,2.75-5.26,5.46-12.47,4.4-11.7,4.39-9.89,5.46-13.72,2.23-7.98,1.88-14.38,1.4-23.08-.45-8.23-.72-12.41-2.96-16.06-3.92-6.39-10.41-8.72-12.63-9.51-1.33-.48-13.85-4.75-23.86,2.49-4.43,3.2-6.45,7.28-8.11,10.6-3.03,6.09-3.53,11.46-4.21,18.87-.36,3.91-.74,8.3-.16,14.03.82,7.98,2.59,9.45,3.59,16.68,1.02,7.39.18,13.19-.47,17.46-.61,4.03-2.3,12.8-7.48,22.61-2.34,4.44-4.58,7.43-9.04,13.41-3.49,4.67-6.33,7.63-12.01,13.57-3.48,3.63-6.3,6.34-7.64,5.61-.63-.34-.88-1.41-.78-2.18.19-1.54,1.78-2.49,2.49-2.96,2.55-1.68,4.04-4.59,6.08-6.86,3.7-4.1,6.11-8.37,8.26-12.16,2.21-3.9,4.64-8.25,6.55-14.5,1.35-4.43,1.87-7.94,2.18-10.14.18-1.25.97-6.98.62-15.28-.29-6.94-.43-10.42-1.72-14.66-1.89-6.24-4.94-10.25-9.36-16.06-3.88-5.11-6.88-9.05-12.01-13.1-8.31-6.56-16.52-8.88-22.61-10.6-4.6-1.3-11.25-3.13-20.11-2.96-8.28.15-14.18,1.96-21.52,4.21-6.85,2.1-12.98,4.03-19.8,8.73-4.4,3.03-7.57,6.17-9.36,7.95-3.25,3.25-5.12,5.11-6.86,8.26-.98,1.78-3.18,5.87-3.27,11.54-.04,2.75-.12,7.37,2.81,11.07,3.38,4.28,8.84,4.89,12.47,5.3,8.05.9,14.66-1.53,24.17-5.15,8.34-3.17,8.56-4.27,13.72-5.3,3.67-.73,9.89-1.89,17.15.47,8.35,2.71,13.06,8.45,14.66,10.45,5.53,6.93,6.76,14.32,7.64,19.65.75,4.51.85,8.91.94,12.94.1,4.67-.18,3.4-.16,10.6.01,3.94.1,5.97-.62,8.89-.64,2.59-2.01,6.22-2.96,6.08-.85-.12-.76-3.2-1.4-7.95-.07-.52-1.13-8.05-3.74-14.81-.83-2.14-2.73-6.96-6.7-11.85-5.91-7.28-13-10.56-19.18-13.41-2.98-1.38-7.61-3.48-13.88-4.83-15.61-3.37-28.63.67-35.71,2.96-6.46,2.09-11.63,5.13-21.99,11.23-4.11,2.42-7.62,4.68-9.67,9.04-2.04,4.35-1.58,8.56-1.4,9.82.28,1.99.78,5.47,3.43,8.11,4.14,4.12,10.64,3.26,12.94,2.96,4.64-.61,5.39-2.16,14.19-6.39,3.9-1.88,9.48-4.53,16.68-6.55,3.11-.87,7.51-2.07,13.41-2.49,5.14-.37,11.49-.82,18.87,1.87,5.74,2.09,9.63,5.19,12.32,7.33,4.32,3.44,6.61,6.38,7.33,7.33,1.29,1.71,6.92,9.17,4.68,12.16-.74.99-2.07,1.14-2.96,1.25-3.47.4-6.15-1.88-9.2-4.05,0,0-4.84-3.45-10.29-6.08-6.91-3.34-13.36-3.68-17.62-3.9-2.08-.11-6.75-.23-12.63.78-3.65.63-5.88,1.37-16.37,5.15-9.5,3.41-14.28,5.13-15.75,5.77-6.98,3.01-11.68,5.05-17,9.2-1.72,1.34-4.42,4.12-9.82,9.67-6.44,6.62-9.7,9.98-11.38,12.47-3.17,4.71-4.4,8.54-6.7,15.75-2.81,8.77-4.77,14.91-4.21,23.08.38,5.62.79,11.55,5.3,16.06,4.57,4.57,10.81,5.14,14.35,5.46,1.4.13,7.09.54,13.88-2.03,9.19-3.48,14.3-10.13,16.53-13.1,5.55-7.42,3.56-9.58,9.82-22.14,2.48-4.97,6.16-12.23,13.1-19.96,1.27-1.42,6.96-7.64,16.06-13.72,2.74-1.83,6.03-3.56,12.63-7.02,5.79-3.04,14.9-7.59,17.31-5.61Z"/></svg>