<?xml version="1.0" encoding="UTF-8"?><svg id="Layer_1" xmlns="http://www.w3.org/2000/svg" width="350.31" height="350.31" viewBox="0 0 350.31 350.31"><defs><style>.cls-1{fill:#0267c1;}.cls-2{fill:#efa00b;}</style></defs><rect class="cls-1" width="350.31" height="350.31"/><path class="cls-2" d="m86.53,117.39c2.45,3.18,2.17,5.19,3.37,7.11,3.18,5.09,14.13,5.32,21.69,2.62,1.62-.58,11.06-4.14,14.96-14.21.76-1.95,3.86-9.98,0-16.83-3.9-6.92-12.44-8.27-21.69-9.72-7.17-1.13-14.81-2.33-23.19,1.5-8.42,3.84-12.64,10.5-15.71,15.34-2.63,4.14-7.18,11.32-7.11,21.32.03,3.72.08,10.47,4.49,16.08,3.6,4.58,9.01,6.42,19.82,10.1,8.6,2.92,11.11,2.71,15.71,5.98,2.44,1.74,7,4.98,8.6,10.47.53,1.82,1.28,5.73-3.37,16.46-4.9,11.31-7.6,11.27-13.09,22.44-4.82,9.81-4.76,13.95-9.35,16.08-3.97,1.85-9.6,1.34-12.72-1.87-4.69-4.83-1.46-13.43-.75-15.34.64-1.7,1.79-4.14,9.72-12.34,8.4-8.68,10.88-9.84,13.47-14.96,1.48-2.94,4.59-9.08,1.87-12.72-2.48-3.33-8.62-2.92-12.34-1.5-4.64,1.78-7.07,5.74-8.6,8.23-2.62,4.27-1.8,5.74-4.49,10.1-1.37,2.21-2.01,2.54-6.73,7.48-6.02,6.3-9.06,9.52-10.85,12.72-.98,1.76-3.03,5.51-3.74,10.85-.29,2.2-.99,8.06,1.87,14.59.75,1.72,4.24,9.14,11.97,12.72,12.77,5.91,26.72-3.47,28.8-4.86,8.98-6.03,13.29-14.64,19.45-26.93,6.44-12.85,6.44-18.18,13.47-23.94,6.63-5.44,13.91-6.66,16.83-7.11,4.84-.75,17.04-2.63,25.43,5.61,6.49,6.37,6.72,14.87,6.73,16.08.09,7.66-3.84,13.22-5.61,15.71-3.7,5.23-5.97,4.95-10.47,11.22-1.32,1.84-3.82,5.37-5.61,10.47-3.15,8.96-3.37,19.45-3.37,19.45-.07,3.43.16,5.06-1.12,6.36-2.55,2.59-8.85,1.64-12.72-1.5-3.5-2.84-4.31-6.92-4.86-9.72-1.24-6.29.3-11.32,1.87-16.46,2.08-6.8,5.02-11.33,7.85-15.71,1.88-2.91,2.85-4.38,4.11-5.24,5.73-3.89,11.48,1.09,16.08-1.87,4.46-2.87,6.34-12.24,1.87-18.33-3.7-5.03-10.52-6.15-15.34-4.86-3.97,1.06-6.08,3.63-15.34,17.21-7.12,10.45-10.68,15.67-11.59,17.58-2.35,4.91-6.89,14.66-6.73,27.68.09,7.32.16,13.77,4.49,19.82,6.23,8.72,19.32,13.91,28.8,9.72,7.74-3.42,11.12-12.22,13.47-18.33,2.6-6.76,1.48-8.75,5.24-17.58,2.33-5.49,4.59-9.02,6.73-12.34,3.82-5.91,5.7-7.37,6.36-7.85.84-.62,7.34-5.28,12.34-2.99,2.14.98,2.32,2.46,5.24,6.73,2.15,3.15,2.36,2.8,8.98,10.47,8.43,9.77,6.85,8.9,9.72,11.59,4.73,4.43,6.49,4.43,12.34,10.1,4.82,4.66,5.63,6.6,5.98,8.23.7,3.24.05,7.63-2.99,10.47-4.32,4.03-10.65,2.32-12.34,1.87-5.12-1.38-8.09-4.93-10.85-8.23-1.32-1.58-4.57-5.56-6.36-11.59-1.64-5.55-.29-6.93-2.24-11.97-1.21-3.11-3.01-7.77-6.73-8.6-4-.9-8.47,3.03-10.47,6.73-2.96,5.46-1.12,11.42.75,17.21,3.92,12.11,11.29,20.1,15.34,23.94,7.43,7.05,13.11,12.42,22.07,13.09,10.08.75,21.26-4.69,26.56-14.59,6.63-12.38.5-25.1-.75-27.68-1.5-3.11-4.86-6.81-11.59-14.21-7.65-8.42-9.31-9.16-15.71-16.46-5.66-6.46-8.61-9.87-11.59-15.34-3.32-6.08-6.18-11.33-5.98-18.7.26-9.74,5.7-16.37,6.73-17.58,6.2-7.31,14.3-9.05,20.95-10.47,2.98-.64,14.33-2.8,28.05,1.5,4.59,1.44,16.03,5.18,25.06,16.08,3.39,4.09,8.75,10.56,9.35,20.2.13,2.16.66,14.63-7.85,20.95-1.11.82-5.5,4.08-10.85,2.99-4.11-.83-8.52-4.17-8.23-7.11.29-2.99,5.2-2.8,8.23-7.48,2.8-4.32,1.87-9.51,1.5-11.59-1.5-8.35-7.97-13.19-10.85-15.34-8.23-6.15-16.97-6.58-21.32-6.73-6.6-.23-14.69-.52-19.45,4.86-4.71,5.33-3.53,13.22-2.99,16.83,2.97,19.83,22.13,31.49,26.93,34.41,9.71,5.91,23.07,14.03,38.15,8.98,11.17-3.74,19.39-13.41,22.44-23.56,5.23-17.43-5.78-32.9-10.85-40.02-5.97-8.38-13.07-13.72-17.21-16.83-5.89-4.42-11.08-8.33-18.7-10.85-17.43-5.76-35.07-.15-37.78.75-7.09,2.35-10.99,5.1-18.7,4.86-2.51-.08-8.4-.34-14.21-4.11-5.47-3.55-7.98-8.34-10.47-13.09-.99-1.88-3.28-6.58-4.49-13.09-1.01-5.43-1.57-8.45-.37-11.97,2.35-6.92,9.52-9.97,11.59-10.85,8.81-3.74,17.25-1.12,22.07.37,6.8,2.11,11.05,5.4,14.21,7.85,4.72,3.66,8.22,6.37,7.85,9.72-.38,3.47-4.72,6.12-8.23,6.73-5.76,1.01-11.82-3-14.96-6.73-1.57-1.86-1.87-3.02-3.74-4.11-2.81-1.65-7.08-1.92-9.72,0-4.07,2.96-3.64,10.66-1.12,15.34,5.08,9.45,20.51,10.06,29.17,8.6,3.58-.6,16.96-2.85,21.69-13.47.49-1.09,3.08-7.2.75-13.84-1.59-4.53-4.71-7.11-7.48-9.35-9.54-7.7-14.9-4.46-20.95-10.85-5.76-6.08-5.94-14.33-5.98-16.08-.07-3.08-.17-7.33,2.62-11.22,4.23-5.91,12.16-6.82,17.21-5.98,2.34.39,6.43,1.07,8.6,4.49,2.08,3.27,1.48,7.62,0,10.47-2.08,4.01-5.17,3.64-6.36,7.11-1.13,3.28.23,7.67,2.99,9.72,4.65,3.46,12.69-.12,16.46-4.86,3.23-4.06,3.12-8.72,2.99-14.59-.12-5.36-.27-12.24-5.24-18.33-4.24-5.2-9.69-7-11.22-7.48-5.52-1.74-10.86-.69-21.32,1.5-4.68.98-3.31.95-17.21,4.49-9.45,2.41-9.99,2.4-11.97,3.37-8.37,4.09-7.25,8.45-13.84,10.85-4.99,1.82-6.15-.48-17.58,1.12-6.92.97-8.36,2.08-8.98,2.62-4.61,4.04-3.77,11.96-3.37,15.71.82,7.71,3.45,8.12,4.49,16.08.99,7.58-.57,13.45-1.12,15.34-.82,2.78-2.44,8.29-7.11,13.09-7.27,7.49-17.04,8.22-22.07,8.6-8.39.63-14.55-1.45-20.2-3.37-9.04-3.06-11.66-6.23-12.34-7.11-.72-.93-4.31-5.72-3.37-11.59.35-2.17,1.62-6.37,4.11-6.73,2.12-.31,4.12,2.29,5.24,3.74Z"/></svg>