<?xml version="1.0" encoding="UTF-8"?><svg id="Layer_1" xmlns="http://www.w3.org/2000/svg" width="200.83" height="181.44" viewBox="0 0 200.83 181.44"><defs><style>.cls-1{fill:#f3fea4;}</style></defs><path class="cls-1" d="m44.74,46.24c0-2.45-1.24-4.31-3.72-5.58-2.48-1.26-6.62-2.05-12.43-2.36-5.81-.31-10.7-1-14.67-2.07-3.97-1.07-6.98-2.86-9.04-5.35-2.05-2.49-3.08-6-3.08-10.52,0-2.84.43-5.46,1.28-7.88.85-2.42,2.24-4.52,4.17-6.33,1.92-1.8,4.49-3.2,7.69-4.2,3.2-1,7.16-1.5,11.86-1.5,4.44,0,8.27.36,11.47,1.09s5.81,1.82,7.82,3.28,3.48,3.22,4.42,5.29c.94,2.07,1.41,4.45,1.41,7.13,0,3.76-.98,6.79-2.95,9.08-1.97,2.3-4.92,3.45-8.84,3.45-2.31,0-4.4-.38-6.28-1.15-1.88-.77-3.7-1.63-5.45-2.59s-3.59-1.82-5.51-2.59-4.08-1.15-6.47-1.15c-2.22,0-4.1.52-5.64,1.55-1.54,1.04-2.31,2.55-2.31,4.54,0,1.84.9,3.37,2.69,4.6,1.79,1.23,4.25,2.19,7.37,2.88,3.12.69,6.56,1.15,10.32,1.38,5.55.23,10.1,1,13.65,2.3,3.54,1.3,6.17,3.24,7.88,5.81,1.71,2.57,2.56,5.96,2.56,10.18s-.88,7.61-2.63,10.64-4.61,5.39-8.59,7.07c-3.97,1.69-9.38,2.53-16.21,2.53-6.41,0-11.47-.69-15.19-2.07s-6.37-3.37-7.95-5.98c-1.58-2.61-2.37-5.67-2.37-9.2,0-2.53.49-4.72,1.47-6.56s2.46-3.28,4.42-4.31c1.96-1.04,4.4-1.55,7.31-1.55,2.48,0,4.68.31,6.6.92s3.76,1.32,5.51,2.13c1.75.8,3.59,1.51,5.51,2.13,1.92.61,4.08.92,6.47.92,2.13,0,3.91-.46,5.32-1.38s2.12-2.45,2.12-4.6v.02Z"/><path class="cls-1" d="m83.57,0c4.44,0,8.27.5,11.47,1.5,3.2,1,5.85,2.49,7.95,4.48,2.09,1.99,3.74,4.47,4.93,7.42,1.2,2.95,2.03,6.4,2.5,10.35s.66,8.41.58,13.4c.08,6.52-.26,12.21-1.03,17.08s-2.16,8.89-4.17,12.07c-2.01,3.18-4.83,5.56-8.46,7.13s-8.22,2.36-13.78,2.36-9.96-.79-13.46-2.36-6.24-3.95-8.2-7.13c-1.97-3.18-3.35-7.19-4.17-12.02-.81-4.83-1.22-10.5-1.22-17.02,0-4.98.26-9.45.77-13.4.51-3.95,1.35-7.42,2.5-10.41,1.15-2.99,2.76-5.48,4.81-7.48,2.05-1.99,4.63-3.49,7.75-4.48,3.12-1,6.86-1.5,11.21-1.5h.02Zm0,49.91c8.97,0,15.57-.96,19.8-2.88,4.23-1.92,6.34-5.06,6.34-9.43,0-4.14-2.16-7.15-6.47-9.03-4.32-1.88-10.92-2.82-19.8-2.82s-14.87.94-19.22,2.82c-4.36,1.88-6.54,4.89-6.54,9.03s2.16,7.42,6.47,9.37c4.31,1.96,10.79,2.93,19.42,2.93h0Z"/><path class="cls-1" d="m148.42,46.59c2.31,0,4.25.48,5.83,1.44s2.8,2.4,3.65,4.31c.85,1.92,1.28,4.33,1.28,7.24,0,3.37-.71,6.27-2.12,8.68-1.41,2.42-3.61,4.25-6.6,5.52-2.99,1.26-6.97,1.9-11.92,1.9-5.98,0-10.68-.71-14.1-2.13-3.42-1.42-5.81-3.24-7.18-5.46s-2.05-4.6-2.05-7.13c0-2.99.66-5.52,1.99-7.59,1.32-2.07,2.84-3.93,4.55-5.58,1.71-1.65,3.22-3.2,4.55-4.66,1.32-1.46,1.99-3.03,1.99-4.71s-.62-3.58-1.86-5.46c-1.24-1.88-2.69-3.85-4.36-5.92-1.67-2.07-3.12-4.31-4.36-6.73-1.24-2.42-1.86-5.08-1.86-7.99,0-4.14,1.52-7.21,4.55-9.2,3.03-1.99,7.03-2.99,11.98-2.99,2.9,0,5.45.46,7.62,1.38,2.18.92,3.89,2.28,5.13,4.08s1.86,4.12,1.86,6.96-.6,5.12-1.79,7.07c-1.2,1.96-2.65,3.7-4.36,5.23s-3.44,3.01-5.19,4.43c-1.75,1.42-3.23,2.91-4.42,4.48-1.2,1.57-1.79,3.39-1.79,5.46,0,2.84.96,4.87,2.88,6.1s4.29,1.84,7.11,1.84c1.79,0,3.35-.1,4.68-.29,1.32-.19,2.76-.29,4.29-.29h.02Z"/><path class="cls-1" d="m88.79,126.98c0-2.45-1.11-4.31-3.33-5.58-2.22-1.26-5.94-2.05-11.15-2.36s-9.6-1-13.16-2.07-6.26-2.85-8.1-5.35c-1.84-2.49-2.76-6-2.76-10.52,0-2.84.38-5.46,1.15-7.88.76-2.42,2.01-4.52,3.73-6.33,1.72-1.8,4.02-3.2,6.9-4.2,2.87-1,6.42-1.5,10.63-1.5,3.98,0,7.41.37,10.29,1.09,2.87.73,5.21,1.82,7.01,3.28s3.12,3.22,3.96,5.29,1.26,4.45,1.26,7.13c0,3.76-.88,6.79-2.64,9.08-1.76,2.3-4.41,3.45-7.93,3.45-2.07,0-3.95-.38-5.63-1.15-1.69-.77-3.31-1.63-4.88-2.59s-3.22-1.82-4.94-2.59-3.66-1.15-5.8-1.15c-1.99,0-3.68.52-5.06,1.55-1.38,1.04-2.07,2.55-2.07,4.54,0,1.84.8,3.37,2.41,4.6,1.61,1.23,3.81,2.19,6.61,2.88,2.8.69,5.88,1.15,9.25,1.38,4.98.23,9.06,1,12.24,2.3s5.53,3.24,7.07,5.81c1.53,2.57,2.3,5.96,2.3,10.18s-.79,7.61-2.36,10.64-4.14,5.39-7.7,7.07-8.41,2.53-14.54,2.53c-5.75,0-10.29-.69-13.62-2.07s-5.71-3.37-7.12-5.98c-1.42-2.61-2.13-5.67-2.13-9.2,0-2.53.44-4.71,1.32-6.55s2.2-3.28,3.96-4.31c1.76-1.04,3.95-1.55,6.55-1.55,2.22,0,4.2.31,5.92.92s3.37,1.32,4.94,2.13,3.22,1.52,4.94,2.13,3.66.92,5.8.92c1.91,0,3.5-.46,4.77-1.38,1.26-.92,1.9-2.45,1.9-4.6h0Z"/><path class="cls-1" d="m121.77,118.36c0,2.38.54,4.25,1.61,5.63s2.41,2.59,4.02,3.62c1.61,1.04,3.22,2.17,4.83,3.39,1.61,1.23,2.95,2.78,4.02,4.66s1.61,4.43,1.61,7.65c0,2.38-.42,4.37-1.26,5.98s-2.01,2.89-3.5,3.85-3.26,1.65-5.29,2.07c-2.03.42-4.23.63-6.61.63s-4.44-.21-6.44-.63c-1.99-.42-3.73-1.11-5.23-2.07-1.49-.96-2.66-2.24-3.5-3.85s-1.26-3.6-1.26-5.98c0-3.22.54-5.77,1.61-7.65,1.07-1.88,2.41-3.43,4.02-4.66,1.61-1.23,3.22-2.36,4.83-3.39s2.95-2.24,4.02-3.62c1.07-1.38,1.61-3.26,1.61-5.63s-.38-4.33-1.15-5.64c-.77-1.3-1.72-2.18-2.87-2.64s-2.3-.69-3.45-.69-2.24.1-3.28.29c-1.03.19-2.03.38-2.99.57s-1.94.29-2.93.29c-1.92,0-3.39-.69-4.42-2.07-1.03-1.38-1.74-3.03-2.13-4.95-.38-1.92-.57-3.64-.57-5.17,0-2.76.36-5.21,1.09-7.36.73-2.15,1.97-3.93,3.73-5.35s4.21-2.51,7.36-3.28c3.14-.77,7.12-1.15,11.95-1.15s8.92.38,12.07,1.15c3.14.77,5.59,1.86,7.36,3.28,1.76,1.42,3.01,3.2,3.73,5.35.73,2.15,1.09,4.6,1.09,7.36,0,1.54-.19,3.26-.57,5.17-.38,1.92-1.09,3.57-2.13,4.95-1.04,1.38-2.55,2.07-4.54,2.07-.92,0-1.84-.1-2.76-.29-.92-.19-1.9-.38-2.93-.57s-2.17-.29-3.39-.29c-1.15,0-2.3.23-3.45.69-1.15.46-2.09,1.34-2.82,2.64s-1.09,3.18-1.09,5.64h0Z"/><path class="cls-1" d="m171.76,80.64c6.21,0,10.99.86,14.37,2.59,3.37,1.72,5.63,4.02,6.78,6.9s1.53,6.04,1.15,9.49-1.15,6.9-2.3,10.35c-1.23,3.6-1.72,6.61-1.49,9.03s.88,4.52,1.95,6.33c1.07,1.8,2.28,3.55,3.62,5.23,1.34,1.69,2.51,3.58,3.5,5.69s1.49,4.74,1.49,7.88c0,2.76-.56,5.06-1.67,6.9s-2.66,3.22-4.65,4.14c-1.99.92-4.29,1.38-6.89,1.38s-5.04-.5-7.07-1.5c-2.03-1-3.6-2.38-4.71-4.14s-1.67-3.83-1.67-6.21.48-4.12,1.44-5.46c.96-1.34,2.16-2.42,3.62-3.22,1.46-.81,2.91-1.5,4.37-2.07,1.45-.58,2.66-1.17,3.62-1.78.96-.61,1.44-1.46,1.44-2.53,0-.84-.4-1.61-1.21-2.3-.8-.69-2.41-1.23-4.83-1.61-2.41-.38-6.03-.58-10.86-.58s-8.35.19-10.8.58c-2.45.38-4.08.92-4.88,1.61s-1.21,1.46-1.21,2.3c0,1.07.48,1.92,1.44,2.53s2.16,1.21,3.62,1.78c1.45.58,2.91,1.26,4.37,2.07,1.46.8,2.66,1.88,3.62,3.22.96,1.34,1.44,3.16,1.44,5.46s-.56,4.45-1.67,6.21c-1.11,1.76-2.66,3.14-4.65,4.14-1.99,1-4.37,1.5-7.12,1.5s-4.9-.46-6.9-1.38c-1.99-.92-3.54-2.3-4.65-4.14s-1.67-4.14-1.67-6.9c0-3.07.5-5.67,1.49-7.82.99-2.15,2.16-4.06,3.5-5.75s2.55-3.43,3.62-5.23c1.07-1.8,1.72-3.91,1.95-6.33s-.27-5.42-1.49-9.03c-1.15-3.45-1.92-6.9-2.3-10.35s0-6.61,1.15-9.49,3.41-5.17,6.78-6.9,8.16-2.59,14.36-2.59h0Zm0,43.7c6.36,0,10.88-.58,13.56-1.72,2.68-1.15,4.02-2.99,4.02-5.52,0-3.29-1.44-5.52-4.31-6.67s-7.3-1.72-13.27-1.72-10.4.57-13.27,1.72-4.31,3.38-4.31,6.67c0,2.53,1.34,4.37,4.02,5.52,2.68,1.15,7.2,1.72,13.56,1.72Z"/></svg>