<?xml version="1.0" encoding="UTF-8"?><svg id="Layer_1" xmlns="http://www.w3.org/2000/svg" width="364.27" height="364.27" viewBox="0 0 364.27 364.27"><defs><style>.cls-1{fill:#ff1000;}.cls-2{fill:#faff81;}</style></defs><rect class="cls-1" width="364.27" height="364.27"/><path class="cls-2" d="m165.45,182.11c.15.12.73.6.66,1.13-.02.16-.1.39-.57.75-.68.54-1.25.63-1.79.85-.36.15-.87.6-1.89,1.51-.66.59-1.41,1.26-2.36,2.26-.92.98-1.38,1.47-1.7,1.98-.65,1.06-.52,1.46-1.23,2.45-.45.64-.69.75-1.42,1.51-.94.98-1.51,1.82-2.08,2.64-.23.34-1,1.48-2.17,3.96-.57,1.22-1.48,3.26-2.45,6.13-.89,2.62-.72,2.64-1.6,5.19-1.09,3.12-1.3,2.97-1.89,5-.74,2.56-.42,2.89-1.23,5.66-.67,2.3-.93,2.23-1.42,4.06-.58,2.18-.61,3.85-.66,6.32-.06,2.87.16,5.02.38,7.08.3,2.89.46,4.34.94,6.13.73,2.68,1.7,4.5,2.92,6.79,1.78,3.34,2.68,5.01,4.53,6.89.53.54,2.69,2.66,6.23,4.25,4.61,2.07,8.66,1.93,9.53,1.89,2.42-.12,6.5-.32,9.91-3.3,3.33-2.92,4.14-6.84,4.43-8.3.29-1.4.07-4.86-.38-11.79-.13-2.08-.19-2.74-.38-3.68-.61-3.08-1.72-4.82-3.21-7.64-.24-.45-2.74-5.23-4.81-10.75-.82-2.18-1.51-4.04-2.08-6.7-.82-3.84-.85-6.8-.85-7.64,0-2.27.24-4,.47-5.75.17-1.29.33-2.13.57-3.02.43-1.63.93-2.78,1.04-3.02.6-1.36.75-1.21,1.98-3.4,1.15-2.03,1.56-3.1,2.83-3.77.66-.35.88-.23.94-.19.52.35-.15,2.08-.57,3.4,0,0-.77,2.39-1.32,7.17-.41,3.51.05,6.3.28,7.64.51,2.96,1.36,5.01,2.55,7.83.61,1.44,1.2,2.7,4.43,8.68,2.58,4.78,3.87,7.17,4.53,8.21,1.2,1.91,3.34,5.27,6.79,9.06,3.51,3.85,6.71,6.31,9.34,8.3,2.51,1.9,4.58,3.25,6.98,4.81,3.61,2.35,5.42,3.52,7.45,4.53,5.33,2.64,10.02,3.55,11.98,3.87,2.03.33,5.58.88,10.19.38,3.42-.37,5.77-1.15,9.43-2.36,4.33-1.43,6.53-2.18,8.21-3.77,2.76-2.62,3.58-5.88,3.87-7.08.27-1.12.83-3.57.09-6.6-.11-.45-.64-2.55-2.26-4.81-.64-.89-3.24-4.52-7.45-5.47-1.2-.27-1.78-.15-3.68-.66-1.9-.51-3.04-1.08-3.87-1.42-2.17-.87-3.9-.77-7.74-.66-7.44.22-11.17.32-14.06,0-2.77-.31-4.92-.55-7.64-1.6-4.16-1.61-6.77-4-10.85-7.74-3.32-3.04-5.53-5.65-6.32-6.6-3.32-4-5.46-7.57-6.79-9.81-3.74-6.29-3.04-6.89-5.09-8.68-.36-.32-2.3-1.97-3.49-4.72-.28-.65-.72-1.68-.38-1.98.41-.35,1.7.5,4.72,2.74,2.93,2.17,4.89,3.73,5.94,4.53,2.35,1.79,4.13,2.86,7.08,4.62,4.43,2.65,7.81,4.22,12.74,6.51,5.62,2.61,9.98,4.35,13.49,5.75,4.27,1.7,6.41,2.55,7.45,2.83,1.98.52,5.12,1.15,18.02.28,9.73-.65,11.42-1.25,13.02-2.08,4.63-2.41,7.16-6.19,7.92-7.36.45-.69,2.42-3.79,3.3-8.3.2-1,.19-3.66.19-8.96,0-1.68-.02-2.87-.66-4.25-.78-1.69-2.04-2.67-3.11-3.49-.63-.48-2.53-1.85-5.47-2.64-.86-.23-4.71-1.2-9.43.09-2.21.61-3.63,1.44-6.32,3.02-3.97,2.34-4.07,3.14-7.55,5.19-3.62,2.14-6.75,3.17-8.3,3.68-3.64,1.18-6.5,1.58-8.77,1.89-8.26,1.11-8.83-.45-18.4.28-1.49.11-3.88.34-6.98-.28-1.36-.27-2.65-.66-5.38-1.79-4.63-1.92-9.76-4.04-9.53-4.91.18-.66,3.31-.04,12.17.57,5.4.37,8.16.55,11.04.38,4.67-.29,8.03-1.23,11.98-2.36,3.03-.87,9.56-2.91,17.36-6.98,6.45-3.37,10.46-6.4,16.6-11.04,3.05-2.3,4.8-3.8,6.51-6.13,1.8-2.45,2.71-4.81,4.53-9.53,1.14-2.94,1.86-5.26,3.3-9.91,1.29-4.16,1.95-6.28,2.17-7.83.36-2.48.82-5.94-.47-10-.39-1.23-1.14-3.53-3.11-5.85-2.91-3.42-6.49-4.56-7.92-5-1.62-.49-3.56-1.08-6.04-.66-2.71.46-4.48,1.86-5.94,3.02-3.43,2.72-5.02,5.99-5.85,7.74-.5,1.06-.81,1.94-1.42,3.68-1.26,3.62-1.44,5.08-2.26,7.92-1.3,4.47-2.27,7.85-4.81,11.32-1.19,1.63-1.87,2.1-3.21,4.25-1.75,2.81-1.45,3.37-2.92,5.66-.73,1.14-2.23,2.7-5.19,5.75-2.28,2.35-3.44,3.54-4.34,4.25-2.01,1.56-2.8,1.68-5.19,3.49-1.9,1.44-2.28,2.04-3.68,3.21-3.31,2.78-4.14,1.96-8.58,4.81,0,0-6.67,4.28-9.15,4.62-.18.03-.71.1-.94-.19-.26-.33,0-.95.09-1.13.67-1.5,3.12-1.93,5.09-2.83,1.33-.61,1.62-1.05,4.53-3.58,4.5-3.92,4.47-3.42,9.06-7.36,4.61-3.96,3.57-3.54,7.36-6.7,4.37-3.64,5.78-4.22,8.02-7.08,1.13-1.44,1.33-2,3.3-4.53,2.38-3.04,2.83-3.17,3.96-4.81,1.36-1.98,1.66-3.18,3.3-7.55,2.66-7.08,2.65-5.99,3.3-8.3,1.35-4.83,1.14-8.7.85-13.96-.27-4.98-.44-7.51-1.79-9.72-2.37-3.86-6.3-5.27-7.64-5.75-.8-.29-8.38-2.87-14.43,1.51-2.68,1.94-3.9,4.4-4.91,6.41-1.83,3.68-2.13,6.93-2.55,11.41-.22,2.37-.45,5.02-.09,8.49.5,4.83,1.57,5.72,2.17,10.09.62,4.47.11,7.98-.28,10.57-.37,2.44-1.39,7.74-4.53,13.68-1.42,2.69-2.77,4.49-5.47,8.11-2.11,2.82-3.83,4.62-7.26,8.21-2.11,2.2-3.81,3.84-4.62,3.4-.38-.21-.53-.85-.47-1.32.11-.93,1.08-1.51,1.51-1.79,1.55-1.02,2.44-2.78,3.68-4.15,2.24-2.48,3.7-5.06,5-7.36,1.34-2.36,2.81-4.99,3.96-8.77.82-2.68,1.13-4.81,1.32-6.13.11-.76.58-4.22.38-9.25-.17-4.2-.26-6.3-1.04-8.87-1.14-3.78-2.99-6.2-5.66-9.72-2.35-3.09-4.16-5.48-7.26-7.92-5.03-3.97-9.99-5.37-13.68-6.41-2.78-.79-6.81-1.89-12.17-1.79-5.01.09-8.58,1.19-13.02,2.55-4.14,1.27-7.85,2.44-11.98,5.28-2.66,1.83-4.58,3.73-5.66,4.81-1.97,1.97-3.1,3.09-4.15,5-.59,1.08-1.93,3.55-1.98,6.98-.03,1.67-.07,4.46,1.7,6.7,2.05,2.59,5.35,2.96,7.55,3.21,4.87.55,8.87-.92,14.62-3.11,5.05-1.92,5.18-2.59,8.3-3.21,2.22-.44,5.98-1.14,10.38.28,5.05,1.64,7.9,5.11,8.87,6.32,3.35,4.19,4.09,8.67,4.62,11.89.45,2.73.51,5.39.57,7.83.06,2.82-.11,2.06-.09,6.41,0,2.39.06,3.61-.38,5.38-.39,1.56-1.22,3.76-1.79,3.68-.52-.07-.46-1.93-.85-4.81-.04-.32-.68-4.87-2.26-8.96-.5-1.29-1.65-4.21-4.06-7.17-3.58-4.41-7.86-6.39-11.6-8.11-1.8-.83-4.6-2.11-8.4-2.92-9.44-2.04-17.32.41-21.6,1.79-3.91,1.26-7.04,3.11-13.3,6.79-2.48,1.46-4.61,2.83-5.85,5.47-1.24,2.63-.96,5.18-.85,5.94.17,1.2.47,3.31,2.08,4.91,2.51,2.49,6.44,1.97,7.83,1.79,2.81-.37,3.26-1.31,8.58-3.87,2.36-1.14,5.73-2.74,10.09-3.96,1.88-.53,4.54-1.25,8.11-1.51,3.11-.22,6.95-.5,11.41,1.13,3.47,1.27,5.82,3.14,7.45,4.43,2.61,2.08,4,3.86,4.43,4.43.78,1.03,4.18,5.55,2.83,7.36-.45.6-1.25.69-1.79.75-2.1.24-3.72-1.14-5.57-2.45,0,0-2.93-2.09-6.23-3.68-4.18-2.02-8.08-2.22-10.66-2.36-1.26-.07-4.08-.14-7.64.47-2.21.38-3.56.83-9.91,3.11-5.75,2.07-8.64,3.11-9.53,3.49-4.22,1.82-7.07,3.05-10.28,5.57-1.04.81-2.67,2.49-5.94,5.85-3.9,4-5.87,6.04-6.89,7.55-1.92,2.85-2.66,5.17-4.06,9.53-1.7,5.31-2.89,9.02-2.55,13.96.23,3.4.48,6.99,3.21,9.72,2.77,2.77,6.54,3.11,8.68,3.3.84.08,4.29.33,8.4-1.23,5.56-2.1,8.65-6.13,10-7.92,3.36-4.49,2.16-5.8,5.94-13.4,1.5-3,3.73-7.4,7.92-12.08.77-.86,4.21-4.63,9.72-8.3,1.66-1.11,3.65-2.15,7.64-4.25,3.5-1.84,9.01-4.59,10.47-3.4h.03Z"/></svg>