<?xml version="1.0" encoding="UTF-8"?><svg id="Layer_1" xmlns="http://www.w3.org/2000/svg" width="14.23" height="13.38" viewBox="0 0 14.23 13.38"><defs><style>.cls-1{fill:#ffb400;}</style></defs><path class="cls-1" d="m5.68,6.76s.06.05.05.09c0,.01,0,.03-.04.06-.05.04-.1.05-.14.07-.03.01-.07.05-.15.12-.05.05-.11.1-.18.18-.07.08-.11.11-.13.15-.05.08-.04.11-.1.19-.04.05-.05.06-.11.12-.07.08-.12.14-.16.21-.02.03-.08.12-.17.31-.05.1-.12.26-.19.48-.07.21-.06.21-.13.41-.09.24-.1.23-.15.39-.06.2-.03.23-.1.44-.05.18-.07.17-.11.32-.05.17-.05.3-.05.5,0,.22,0,.39.03.55.02.23.04.34.07.48.06.21.13.35.23.53.14.26.21.39.35.54.04.04.21.21.49.33.36.16.68.15.75.15.19,0,.51-.03.78-.26.26-.23.32-.54.35-.65.02-.11,0-.38-.03-.92-.01-.16-.02-.21-.03-.29-.05-.24-.13-.38-.25-.6-.02-.04-.21-.41-.38-.84-.06-.17-.12-.32-.16-.52-.06-.3-.07-.53-.07-.6,0-.18.02-.31.04-.45.01-.1.03-.17.04-.24.03-.13.07-.22.08-.24.05-.11.06-.09.15-.27.09-.16.12-.24.22-.3.05-.03.07-.02.07-.01.04.03-.01.16-.04.27,0,0-.06.19-.1.56-.03.28,0,.49.02.6.04.23.11.39.2.61.05.11.09.21.35.68.2.37.3.56.35.64.09.15.26.41.53.71s.53.49.73.65c.2.15.36.25.55.38.28.18.42.28.58.35.42.21.78.28.94.3.16.03.44.07.8.03.27-.03.45-.09.74-.18.34-.11.51-.17.64-.3.22-.21.28-.46.3-.55s.06-.28,0-.52c0-.04-.05-.2-.18-.38-.05-.07-.25-.35-.58-.43-.09-.02-.14-.01-.29-.05s-.24-.08-.3-.11c-.17-.07-.31-.06-.61-.05-.58.02-.87.03-1.1,0-.22-.02-.39-.04-.6-.13-.33-.13-.53-.31-.85-.61-.26-.24-.43-.44-.5-.52-.26-.31-.43-.59-.53-.77-.29-.49-.24-.54-.4-.68-.03-.02-.18-.15-.27-.37-.02-.05-.06-.13-.03-.15.03-.03.13.04.37.21.23.17.38.29.47.35.18.14.32.22.55.36.35.21.61.33,1,.51.44.2.78.34,1.06.45.33.13.5.2.58.22.15.04.4.09,1.41.02.76-.05.89-.1,1.02-.16.36-.19.56-.48.62-.58.04-.05.19-.3.26-.65.02-.08.02-.29.01-.7,0-.13,0-.22-.05-.33-.06-.13-.16-.21-.24-.27-.05-.04-.2-.14-.43-.21-.07-.02-.37-.09-.74,0-.17.05-.28.11-.5.24-.31.18-.32.25-.59.41-.28.17-.53.25-.65.29-.28.09-.51.12-.69.15-.65.09-.69-.04-1.44.02-.12,0-.3.03-.55-.02-.11-.02-.21-.05-.42-.14-.36-.15-.76-.32-.75-.38.01-.05.26,0,.95.04.42.03.64.04.86.03.37-.02.63-.1.94-.18.24-.07.75-.23,1.36-.55.51-.26.82-.5,1.3-.86.24-.18.38-.3.51-.48.14-.19.21-.38.35-.75.09-.23.15-.41.26-.78.1-.33.15-.49.17-.61.03-.19.06-.46-.04-.78-.03-.1-.09-.28-.24-.46-.23-.27-.51-.36-.62-.39-.13-.04-.28-.08-.47-.05-.21.04-.35.15-.47.24-.27.21-.39.47-.46.61-.04.08-.06.15-.11.29-.1.28-.11.4-.18.62-.1.35-.18.61-.38.89-.09.13-.15.16-.25.33-.14.22-.11.26-.23.44-.06.09-.17.21-.41.45-.18.18-.27.28-.34.33-.16.12-.22.13-.41.27-.15.11-.18.16-.29.25-.26.22-.32.15-.67.38,0,0-.52.34-.72.36-.01,0-.06,0-.07-.01-.02-.03,0-.07,0-.09.05-.12.24-.15.4-.22.1-.05.13-.08.35-.28.35-.31.35-.27.71-.58s.28-.28.58-.52c.34-.29.45-.33.63-.55.09-.11.1-.16.26-.35.19-.24.22-.25.31-.38.11-.15.13-.25.26-.59.21-.55.21-.47.26-.65.11-.38.09-.68.07-1.09-.02-.39-.03-.59-.14-.76-.19-.3-.49-.41-.6-.45-.06-.02-.66-.23-1.13.12-.21.15-.31.34-.38.5-.14.29-.17.54-.2.89-.02.19-.04.39,0,.66.04.38.12.45.17.79.05.35,0,.62-.02.83-.03.19-.11.61-.35,1.07-.11.21-.22.35-.43.64-.17.22-.3.36-.57.64-.16.17-.3.3-.36.27-.03-.02-.04-.07-.04-.1,0-.07.08-.12.12-.14.12-.08.19-.22.29-.32.18-.19.29-.4.39-.58s.22-.39.31-.69c.06-.21.09-.38.1-.48,0-.06.05-.33.03-.72-.01-.33-.02-.49-.08-.69-.09-.3-.23-.49-.44-.76-.18-.24-.33-.43-.57-.62-.39-.31-.78-.42-1.07-.5-.22-.06-.53-.15-.95-.14-.39,0-.67.09-1.02.2-.32.1-.61.19-.94.41-.21.14-.36.29-.44.38-.15.15-.24.24-.32.39-.05.08-.15.28-.15.55,0,.13,0,.35.13.52.16.2.42.23.59.25.38.04.69-.07,1.15-.24.4-.15.41-.2.65-.25.17-.03.47-.09.81.02.4.13.62.4.69.5.26.33.32.68.36.93.04.21.04.42.04.61v.5c0,.19,0,.28-.03.42-.03.12-.1.29-.14.29s-.04-.15-.07-.38c0-.02-.05-.38-.18-.7-.04-.1-.13-.33-.32-.56-.28-.34-.62-.5-.91-.64-.14-.07-.36-.16-.66-.23-.74-.16-1.36.03-1.69.14-.31.1-.55.24-1.04.53-.19.11-.36.22-.46.43s-.07.41-.07.47c0,.09.04.26.16.38.2.2.5.15.61.14.22-.03.26-.1.67-.3.18-.09.45-.21.79-.31.15-.04.36-.1.64-.12.24-.02.54-.04.89.09.27.1.46.25.58.35.2.16.31.3.35.35.06.08.33.43.22.58-.04.05-.1.05-.14.06-.16.02-.29-.09-.44-.19,0,0-.23-.16-.49-.29-.33-.16-.63-.17-.83-.18-.1,0-.32-.01-.6.04-.17.03-.28.06-.78.24-.45.16-.68.24-.75.27-.33.14-.55.24-.81.44-.08.06-.21.2-.47.46-.31.31-.46.47-.54.59-.15.22-.21.4-.32.75-.13.42-.23.71-.2,1.09.02.27.04.55.25.76.22.22.51.24.68.26.07,0,.34.03.66-.1.44-.16.68-.48.78-.62.26-.35.17-.45.47-1.05.12-.24.29-.58.62-.95.06-.07.33-.36.76-.65.13-.09.29-.17.6-.33.27-.14.71-.36.82-.27h0l.07-.02Z"/></svg>